<?xml version="1.0" standalone="no"?>
<!DOCTYPE svg PUBLIC "-//W3C//DTD SVG 20010904//EN"
 "http://www.w3.org/TR/2001/REC-SVG-20010904/DTD/svg10.dtd">
<svg version="1.0" xmlns="http://www.w3.org/2000/svg"
 width="1024.000000pt" height="1024.000000pt" viewBox="0 0 1024.000000 1024.000000"
 preserveAspectRatio="xMidYMid meet">
<metadata>
Created by potrace 1.14, written by Peter Selinger 2001-2017
</metadata>
<g transform="translate(0.000000,1024.000000) scale(0.100000,-0.100000)"
fill="#000000" stroke="none">
<path d="M4703 7702 c-260 -521 -520 -1046 -578 -1167 -118 -245 -242 -475
-257 -475 -5 0 -6 -5 -2 -12 4 -7 3 -8 -5 -4 -6 4 -10 10 -7 14 7 13 34 77 40
96 5 15 4 17 -7 7 -12 -9 -14 -6 -10 16 4 28 6 101 4 158 -2 34 3 84 13 135 4
19 4 32 1 28 -4 -3 -8 -13 -9 -22 -1 -8 -9 -23 -18 -33 -9 -10 -255 -424 -547
-920 -292 -497 -645 -1095 -784 -1330 -445 -750 -956 -1620 -963 -1637 -6 -15
83 -16 1157 -17 963 0 1177 -3 1239 -14 300 -57 527 -80 893 -91 216 -7 566 7
730 28 l87 11 0 33 0 34 90 0 90 0 26 -42 c14 -24 120 -207 236 -408 115 -201
214 -369 218 -373 11 -12 283 192 735 552 37 29 64 48 60 41 -4 -7 4 -4 19 5
25 17 38 34 14 19 -7 -5 -8 -3 -4 5 5 7 10 10 13 7 3 -3 20 5 37 17 17 12 35
22 41 22 17 1 135 78 178 117 l42 37 593 1 c325 0 592 2 592 5 0 5 -151 274
-422 750 -91 160 -218 385 -283 500 -65 116 -186 332 -270 480 l-153 270 -6
80 c-26 304 -115 613 -262 907 -30 59 -170 305 -313 545 -339 575 -620 1053
-821 1398 -90 154 -165 282 -168 285 -3 3 -6 0 -9 -6 -2 -6 -78 -135 -169
-288 l-166 -278 -19 31 c-23 38 -28 24 97 239 46 79 84 145 84 148 0 5 -286
510 -567 1002 -13 23 -27 42 -31 42 -4 0 -220 -427 -479 -948z m538 -1343 c16
-17 29 -27 29 -23 0 4 18 -10 41 -31 43 -43 245 -374 654 -1072 l77 -133 -165
-302 c-91 -167 -255 -467 -364 -668 -110 -201 -217 -398 -237 -437 -21 -40
-44 -73 -52 -73 -7 0 -32 29 -55 65 l-42 65 -793 0 c-437 0 -794 3 -794 6 0 6
2 11 207 364 351 603 546 937 818 1395 82 138 157 265 168 283 10 17 24 32 30
32 6 0 8 3 5 6 -4 3 0 13 8 22 54 64 73 90 66 97 -4 5 -2 6 3 3 6 -3 18 3 28
14 9 10 15 18 12 18 -3 0 3 8 13 18 87 93 189 228 227 303 45 87 70 97 116 48z"/>
</g>
</svg>
